<?xml version="1.0" standalone="no"?>
<!DOCTYPE svg PUBLIC "-//W3C//DTD SVG 20010904//EN"
 "http://www.w3.org/TR/2001/REC-SVG-20010904/DTD/svg10.dtd">
<svg version="1.0" xmlns="http://www.w3.org/2000/svg"
 width="3701.000000pt" height="1363.000000pt" viewBox="0 0 3701.000000 1363.000000"
 preserveAspectRatio="xMidYMid meet">

<g transform="translate(0.000000,1363.000000) scale(0.100000,-0.100000)"
fill="#000000" stroke="none">
<path d="M5235 13624 c-320 -19 -637 -80 -913 -175 -1180 -407 -2033 -1434
-2213 -2664 -32 -218 -39 -424 -39 -1092 l0 -643 -627 0 c-578 0 -635 -2 -720
-19 -182 -38 -316 -113 -458 -255 -173 -174 -255 -378 -255 -632 0 -417 273
-769 680 -876 84 -22 94 -22 1040 -28 947 -6 956 -6 1027 -28 263 -80 455
-242 569 -477 165 -341 104 -743 -155 -1018 -166 -175 -373 -268 -632 -282
-199 -11 -319 -40 -447 -111 -220 -120 -377 -322 -443 -569 -31 -114 -31 -336
0 -450 23 -88 83 -221 130 -289 111 -161 281 -286 481 -353 l85 -28 1395 -6
c1261 -5 1402 -7 1463 -22 441 -109 727 -487 703 -932 -17 -322 -187 -595
-467 -749 -136 -75 -224 -96 -449 -106 -209 -10 -308 -30 -425 -84 -198 -91
-346 -239 -438 -436 -59 -126 -78 -201 -84 -345 -19 -430 238 -788 659 -917
73 -22 75 -22 913 -26 846 -3 1001 1 1260 34 877 112 1701 481 2381 1067 138
120 403 389 519 530 416 503 727 1107 894 1737 114 429 166 931 142 1362 -37
671 -186 1239 -478 1818 -218 434 -468 783 -812 1134 -231 235 -460 426 -708
591 l-102 67 -4 1137 c-3 1101 -4 1140 -24 1271 -64 405 -161 711 -334 1050
-505 995 -1474 1669 -2579 1794 -138 16 -427 27 -535 20z m452 -1380 c770
-115 1408 -692 1603 -1449 57 -222 60 -272 60 -1106 0 -417 -2 -759 -5 -759
-3 0 -46 9 -95 20 -109 24 -288 54 -465 77 -116 15 -305 17 -1742 20 l-1613 4
0 638 c0 351 5 696 10 767 22 264 84 488 205 729 304 608 894 1009 1575 1075
119 11 338 4 467 -16z"/>
<path d="M14390 11343 c-384 -23 -780 -167 -1089 -398 -453 -337 -757 -872
-821 -1440 -13 -116 -13 -386 0 -495 48 -407 185 -757 417 -1068 73 -98 236
-266 333 -345 248 -200 584 -358 882 -416 716 -138 1408 71 1915 577 103 102
115 132 71 175 -64 62 -477 405 -496 411 -19 6 -40 -10 -141 -108 -211 -204
-415 -316 -681 -373 -117 -25 -362 -24 -480 1 -260 56 -480 176 -670 366 -164
164 -283 356 -355 574 -46 140 -65 263 -65 430 0 243 40 419 144 631 144 294
351 507 624 644 184 92 361 135 567 135 156 1 247 -12 380 -55 190 -60 360
-167 531 -331 89 -87 117 -108 140 -108 23 0 79 43 277 211 224 190 247 213
247 241 0 25 -16 47 -92 125 -424 433 -1009 653 -1638 616z"/>
<path d="M16413 11265 c-13 -9 -23 -25 -23 -35 0 -11 403 -545 895 -1187 l895
-1168 0 -800 c0 -440 4 -805 8 -811 20 -31 54 -34 367 -34 l316 0 24 25 25 24
0 798 0 798 895 1168 c492 642 895 1176 895 1186 0 10 -8 26 -19 35 -17 15
-54 17 -423 14 l-404 -3 -49 -25 c-46 -24 -97 -88 -652 -810 -332 -432 -607
-785 -613 -785 -5 0 -281 353 -612 785 -556 722 -607 786 -653 810 l-49 25
-401 3 c-352 2 -403 1 -422 -13z"/>
<path d="M28835 11255 l-25 -24 0 -1976 0 -1976 25 -24 24 -25 319 0 c308 0
320 1 346 21 l26 20 0 1635 0 1634 845 0 c709 0 845 -2 838 -14 -4 -7 -262
-345 -573 -750 -386 -503 -565 -744 -565 -761 0 -31 1289 -1710 1337 -1742 61
-40 98 -43 494 -43 355 0 383 1 404 18 17 14 21 25 17 43 -4 13 -300 406 -658
873 -358 466 -648 854 -645 861 2 7 210 281 460 609 251 329 464 612 474 629
15 29 17 77 20 500 l3 467 -25 25 -25 25 -1546 0 -1546 0 -24 -25z"/>
<path d="M21203 11260 c-12 -5 -26 -18 -32 -29 -8 -14 -11 -615 -11 -1991 l0
-1971 25 -24 24 -25 1551 0 c1546 0 1550 0 1570 20 20 20 21 29 18 498 -3 465
-4 478 -24 513 -12 19 -182 243 -378 497 -196 254 -361 471 -368 481 -10 16
37 80 360 499 204 265 379 496 389 514 16 30 18 72 21 498 2 256 0 475 -3 487
-3 12 -18 26 -36 32 -39 14 -3072 14 -3106 1z m2375 -748 c-7 -10 -223 -293
-480 -630 -376 -491 -468 -617 -468 -641 0 -21 16 -51 52 -98 225 -295 821
-1070 860 -1120 l50 -63 -846 0 -846 0 0 1285 0 1285 846 0 c814 0 845 -1 832
-18z"/>
<path d="M25223 11260 c-12 -5 -26 -18 -32 -29 -7 -13 -11 -134 -11 -345 l0
-326 1145 0 1146 0 39 38 c58 56 470 601 470 623 0 10 -10 25 -22 33 -20 14
-166 16 -1368 15 -750 0 -1355 -4 -1367 -9z"/>
<path d="M25180 9225 l0 -355 1098 0 c864 0 1102 3 1122 13 l25 13 3 342 2
342 -1125 0 -1125 0 0 -355z"/>
<path d="M25180 7600 l0 -331 25 -24 24 -25 1271 0 1271 0 24 25 25 24 0 311
c0 196 -4 319 -10 331 -11 19 -36 19 -1320 19 l-1310 0 0 -330z"/>
<path d="M26770 6475 c-428 -59 -823 -252 -1134 -554 -186 -181 -297 -334
-415 -572 -401 -806 -239 -1829 389 -2460 335 -336 759 -539 1235 -590 136
-14 433 -6 565 16 656 109 1210 507 1514 1087 72 138 139 308 175 449 72 281
90 621 45 877 l-6 32 -678 0 c-412 0 -698 -4 -731 -10 -95 -18 -116 -40 -330
-355 -109 -159 -200 -298 -202 -307 -3 -9 2 -26 10 -37 14 -21 19 -21 589 -21
l574 0 -6 -27 c-69 -286 -308 -613 -576 -790 -534 -351 -1166 -284 -1623 172
-210 209 -344 459 -401 751 -27 133 -24 375 4 522 98 493 441 904 892 1066
286 103 633 92 911 -28 162 -70 358 -209 461 -327 43 -48 58 -59 84 -59 29 0
45 18 225 252 214 278 223 290 214 318 -10 32 -180 175 -310 262 -267 178
-567 290 -889 333 -142 18 -451 18 -586 0z"/>
<path d="M12487 6402 c-16 -17 -17 -170 -17 -2000 0 -1969 0 -1982 20 -2002
19 -19 33 -20 345 -20 l326 0 24 25 25 24 0 1631 0 1630 846 0 845 0 -19 -27
c-11 -16 -270 -354 -576 -753 -339 -442 -556 -733 -556 -747 0 -13 245 -340
636 -850 350 -455 648 -841 663 -856 14 -16 44 -39 66 -50 39 -21 52 -22 452
-25 l412 -3 16 25 c14 20 14 29 4 48 -7 13 -298 396 -648 852 -350 457 -641
837 -648 846 -10 14 60 111 454 626 256 335 473 625 482 644 14 30 16 94 19
480 2 245 1 455 -3 467 -14 57 104 53 -1594 53 -1497 0 -1559 -1 -1574 -18z"/>
<path d="M33487 6402 c-16 -17 -17 -170 -17 -2000 0 -1969 0 -1982 20 -2002
19 -19 33 -20 344 -20 304 0 325 1 347 19 l24 19 3 1636 2 1636 846 0 c676 0
844 -3 837 -12 -324 -414 -1138 -1490 -1141 -1509 -3 -22 99 -160 628 -850
348 -453 654 -845 680 -870 33 -31 63 -50 94 -58 30 -7 176 -11 434 -11 426 0
419 -1 410 57 -3 21 -855 1147 -1299 1719 -5 6 166 239 453 615 254 332 470
620 480 639 17 32 18 71 18 506 0 443 -1 472 -18 487 -17 16 -141 17 -1574 17
-1494 0 -1556 -1 -1571 -18z"/>
<path d="M19152 6388 c-28 -13 -63 -45 -96 -87 -215 -269 -2961 -3860 -2964
-3877 -2 -11 4 -28 13 -37 15 -15 57 -17 418 -17 401 0 402 0 452 24 28 13 60
34 72 47 11 13 245 314 518 669 273 355 500 645 506 645 5 0 236 -296 513
-658 277 -362 519 -669 537 -683 18 -13 49 -29 69 -34 19 -6 172 -10 343 -10
294 0 308 1 327 20 20 20 20 33 20 1998 0 1774 -2 1980 -16 2000 -15 22 -15
22 -342 22 -311 -1 -329 -2 -370 -22z m-4 -2384 l-3 -386 -298 386 -297 387
297 387 298 387 3 -387 c1 -214 1 -562 0 -774z"/>
<path d="M20730 6390 c-20 -20 -20 -33 -20 -1998 l0 -1979 23 -21 c23 -22 28
-22 350 -22 314 0 328 1 347 20 20 20 20 33 20 1390 0 754 3 1370 8 1369 4 0
473 -608 1042 -1351 569 -743 1050 -1363 1068 -1378 56 -46 87 -50 419 -50
288 0 311 1 326 18 16 17 17 171 17 2005 0 1792 -2 1987 -16 2001 -13 14 -59
16 -348 16 -310 0 -334 -1 -349 -18 -16 -17 -17 -128 -17 -1393 l0 -1374 -24
25 c-13 14 -487 629 -1054 1366 -986 1284 -1033 1343 -1084 1368 l-52 26 -318
0 c-305 0 -319 -1 -338 -20z"/>
<path d="M29856 6388 c-14 -20 -16 -226 -16 -2000 0 -1965 0 -1978 20 -1998
20 -20 33 -20 1298 -20 1226 0 1280 1 1295 18 15 17 17 56 17 349 0 307 -1
331 -18 346 -17 16 -97 17 -945 17 l-927 0 0 460 0 460 735 0 c722 0 735 0
755 20 19 19 20 33 20 348 0 268 -3 332 -14 348 -14 18 -35 19 -755 22 l-741
2 0 460 0 460 738 0 737 0 50 24 c31 14 66 42 91 72 66 80 420 547 432 571 15
28 15 28 -4 47 -14 14 -153 16 -1384 16 l-1369 0 -15 -22z"/>
<path d="M1255 1806 c-351 -69 -630 -334 -716 -681 -30 -123 -30 -294 0 -418
82 -342 356 -608 696 -678 304 -63 627 37 837 259 83 88 120 143 169 246 109
234 111 521 5 751 -118 255 -327 432 -601 507 -92 26 -294 33 -390 14z"/>
</g>
</svg>
