<?xml version="1.0" standalone="no"?>
<!DOCTYPE svg PUBLIC "-//W3C//DTD SVG 20010904//EN"
 "http://www.w3.org/TR/2001/REC-SVG-20010904/DTD/svg10.dtd">
<svg version="1.0" xmlns="http://www.w3.org/2000/svg"
 width="2000.000000pt" height="1500.000000pt" viewBox="0 0 2000.000000 1500.000000"
 preserveAspectRatio="xMidYMid meet">
<metadata>
Created by potrace 1.16, written by Peter Selinger 2001-2019
</metadata>
<g transform="translate(0.000000,1500.000000) scale(0.100000,-0.100000)"
fill="#000000" stroke="none">
<path d="M4575 10069 c-197 -24 -428 -94 -565 -171 -394 -222 -643 -575 -721
-1027 -15 -87 -22 -182 -26 -383 l-6 -266 -236 -4 c-218 -4 -240 -6 -296 -28
-146 -57 -239 -161 -276 -310 -16 -67 -16 -276 0 -344 38 -159 153 -276 317
-322 49 -14 122 -17 439 -21 209 -2 396 -8 417 -13 70 -20 178 -140 178 -200
0 -57 -63 -143 -134 -185 -29 -17 -74 -29 -148 -39 -119 -17 -170 -34 -244
-82 -83 -55 -140 -139 -169 -251 -19 -73 -20 -289 -1 -358 40 -150 141 -258
287 -308 62 -21 84 -21 644 -27 443 -4 587 -8 610 -18 54 -24 113 -81 140
-136 23 -48 25 -58 16 -94 -14 -51 -89 -134 -144 -160 -26 -12 -83 -24 -149
-31 -170 -17 -272 -67 -353 -174 -56 -73 -84 -162 -92 -287 -19 -319 128 -520
411 -559 97 -14 698 -14 826 -1 495 52 877 220 1201 527 322 307 519 706 580
1173 17 136 15 430 -5 577 -70 523 -339 989 -743 1288 l-81 60 -5 430 c-5 444
-10 508 -53 676 -124 494 -516 893 -999 1018 -195 51 -448 71 -620 50z m520
-114 c202 -41 351 -103 519 -218 293 -201 508 -545 561 -897 12 -77 15 -201
15 -549 l0 -448 58 -38 c86 -57 197 -153 287 -246 431 -450 603 -1093 454
-1699 -162 -658 -672 -1172 -1330 -1340 -193 -50 -311 -60 -693 -60 -198 0
-357 3 -353 6 3 3 103 5 221 5 143 -1 216 2 216 9 0 6 -69 10 -200 10 -185 0
-204 2 -265 24 -160 58 -236 163 -238 326 -1 67 3 82 32 135 40 72 54 89 106
125 68 46 147 70 233 70 124 0 223 49 298 147 126 165 88 455 -74 567 -94 64
-83 63 -692 71 -660 8 -670 9 -776 107 l-44 41 0 191 0 192 38 36 c62 61 130
88 240 99 172 16 276 85 346 229 29 61 31 72 31 180 0 109 -2 118 -32 181 -39
79 -111 150 -191 187 -54 26 -66 27 -244 30 l-187 4 -3 211 c-2 117 -2 265 0
329 l3 118 49 -2 c27 -1 53 1 57 6 4 4 11 166 14 359 6 383 11 426 71 595 94
269 281 511 508 660 52 34 100 66 106 71 24 20 113 60 196 89 87 31 307 82
353 82 14 0 25 5 25 11 0 7 -25 9 -77 5 -51 -3 -66 -2 -43 3 80 19 278 12 405
-14z m-462 -2 c-7 -2 -19 -2 -25 0 -7 3 -2 5 12 5 14 0 19 -2 13 -5z m-1168
-1833 c8 -13 -434 -13 -455 0 -10 6 63 10 217 10 144 0 234 -4 238 -10z m-488
-6 c-3 -3 -12 -4 -19 -1 -8 3 -5 6 6 6 11 1 17 -2 13 -5z m376 -51 c-16 -26
-16 -27 0 -14 15 12 17 11 17 -3 0 -9 -2 -16 -4 -16 -2 0 -11 -3 -20 -6 -11
-4 -16 -1 -16 11 0 11 -5 15 -14 12 -8 -3 -20 1 -26 8 -7 8 -16 12 -21 9 -5
-3 -9 1 -9 9 0 10 16 14 56 16 l55 2 -18 -28z m58 -10 c13 -16 12 -17 -3 -4
-10 7 -18 15 -18 17 0 8 8 3 21 -13z m-117 -35 c-3 -4 0 -8 6 -8 6 0 9 -4 5
-10 -7 -12 -45 19 -45 37 0 11 4 11 19 1 11 -7 17 -16 15 -20z m114 -12 c0
-22 -2 -22 -18 -7 -18 17 -17 31 4 31 8 0 14 -11 14 -24z m-131 -33 c-4 -3 -2
-12 5 -20 8 -11 7 -12 -6 -7 -9 3 -16 9 -16 13 0 9 11 21 18 21 3 0 2 -3 -1
-7z m43 -63 c8 -5 11 -10 5 -10 -5 -1 3 -8 18 -16 15 -8 25 -19 22 -23 -8 -14
-65 -19 -65 -6 0 8 10 10 26 7 19 -3 25 -1 20 7 -4 6 -12 11 -18 11 -6 0 -17
8 -24 18 -13 16 -14 16 -8 -3 5 -16 4 -17 -4 -5 -18 25 0 38 28 20z m90 -50
c-6 -11 -13 -20 -16 -20 -2 0 0 9 6 20 6 11 13 20 16 20 2 0 0 -9 -6 -20z
m-13 -44 c-47 -19 -62 -11 -35 18 9 9 18 10 34 2 l23 -11 -22 -9z m-107 -14
c0 -5 -7 -9 -15 -9 -8 0 -12 4 -9 9 3 4 9 8 15 8 5 0 9 -4 9 -8z m20 -32 c0
-5 -2 -10 -4 -10 -3 0 -8 5 -11 10 -3 6 -1 10 4 10 6 0 11 -4 11 -10z m103
-67 c-7 -3 -13 -10 -13 -17 0 -7 -9 -21 -19 -30 -15 -14 -21 -15 -27 -5 -5 9
-12 4 -20 -16 -7 -17 -13 -23 -14 -15 0 8 -3 25 -6 38 -5 17 -3 21 8 17 8 -3
21 1 28 10 7 8 21 15 31 15 10 0 21 5 24 11 4 6 10 7 14 3 3 -4 0 -9 -6 -11z
m-124 -17 c13 -15 4 -49 -10 -40 -5 3 -9 0 -9 -5 0 -6 5 -11 10 -11 6 0 10 -4
10 -10 0 -5 -7 -10 -15 -10 -8 0 -15 9 -15 20 0 11 7 23 15 26 8 4 15 10 15
15 0 5 -7 9 -15 9 -8 0 -15 5 -15 10 0 14 16 12 29 -4z m-7 -173 c-6 -3 -10
-9 -6 -14 3 -5 0 -9 -5 -9 -6 0 -11 4 -11 8 0 12 23 32 29 25 3 -3 0 -8 -7
-10z m444 -115 c4 -5 -161 -7 -367 -7 -206 1 -360 4 -344 8 43 9 702 8 711 -1z
m-38 -745 c-16 -2 -40 -2 -55 0 -16 2 -3 4 27 4 30 0 43 -2 28 -4z m755 -720
c-149 -2 -397 -2 -550 0 -153 1 -30 2 272 2 303 0 428 -1 278 -2z m264 -743
c-21 -4 -53 -4 -70 0 -24 6 -15 8 38 8 58 0 64 -2 32 -8z"/>
<path d="M4831 9445 c3 -2 30 -8 60 -13 50 -8 45 -9 -51 -10 -304 -4 -562
-166 -696 -437 -75 -153 -77 -168 -82 -532 l-3 -323 603 0 c341 0 651 -5 713
-10 137 -13 242 -37 249 -56 9 -23 36 -16 46 12 13 34 13 547 0 653 -29 225
-147 431 -325 567 -63 49 -224 123 -300 139 -65 14 -225 21 -214 10z m77 -251
c220 -73 393 -249 462 -469 19 -60 23 -100 27 -290 l5 -220 -633 3 c-349 1
-640 5 -648 8 -11 4 -13 41 -9 217 5 196 7 218 32 292 74 219 234 381 450 456
109 38 206 39 314 3z"/>
<path d="M4086 8102 c5 -5 254 -5 554 -2 l545 6 -554 2 c-305 1 -551 -2 -545
-6z"/>
<path d="M8275 9144 c-394 -62 -674 -308 -776 -684 -21 -77 -24 -106 -24 -300
0 -254 15 -330 94 -495 115 -240 317 -407 578 -476 l88 -24 -335 -5 c-354 -6
-376 -9 -405 -54 -31 -47 -36 -208 -33 -993 3 -712 4 -771 21 -808 10 -21 23
-43 30 -47 32 -21 103 -29 255 -29 187 0 233 9 266 54 20 27 21 43 24 313 2
157 7 284 12 282 4 -2 111 -138 238 -303 183 -239 239 -304 269 -319 51 -24
220 -34 598 -32 329 1 362 6 412 58 15 16 84 102 153 191 69 89 131 162 138
162 7 0 74 -81 150 -180 173 -227 170 -225 380 -232 85 -3 176 -1 216 5 94 15
114 36 127 129 6 43 9 389 7 880 -3 902 -1 869 -70 897 -82 34 -404 28 -482
-9 -28 -14 -152 -168 -583 -731 -361 -471 -552 -714 -562 -712 -18 4 -321 396
-321 415 0 8 62 96 138 196 76 100 144 198 152 217 21 50 22 529 1 578 -23 54
-58 65 -214 70 -76 2 -136 6 -134 9 3 2 33 11 67 19 136 31 294 119 401 221
51 48 60 62 70 111 13 66 5 186 -15 217 -16 24 -171 157 -201 172 -33 17 -126
23 -193 13 -56 -8 -68 -14 -122 -63 -131 -118 -246 -143 -367 -78 -86 46 -175
141 -219 235 -33 70 -36 82 -32 148 5 98 50 190 134 274 119 119 248 155 360
99 28 -14 79 -50 114 -80 38 -33 80 -60 104 -66 58 -16 199 -6 234 17 61 40
182 150 193 177 6 15 17 26 23 24 6 -2 129 -158 274 -347 l262 -342 0 -262 c0
-143 5 -292 10 -331 18 -125 58 -141 347 -133 163 4 198 14 223 65 11 21 16
101 20 343 3 173 9 321 14 329 29 45 578 757 586 759 6 2 10 -270 12 -707 3
-702 3 -710 24 -738 43 -58 37 -58 764 -58 718 0 732 1 765 52 37 55 43 469 9
588 -10 36 -42 87 -114 179 -55 72 -100 138 -100 148 0 11 43 74 95 141 52 67
102 137 111 155 24 51 38 289 26 455 -10 148 -21 178 -70 200 -20 9 -213 12
-767 13 -407 1 -794 4 -860 8 -163 8 -343 -6 -390 -30 -26 -14 -86 -84 -214
-249 -97 -127 -182 -230 -189 -230 -7 0 -93 104 -190 230 -136 177 -186 234
-215 249 -50 24 -234 39 -382 30 -178 -10 -205 -22 -219 -105 l-6 -37 -114 58
c-161 82 -253 102 -471 106 -93 1 -183 0 -200 -2z m484 -115 c102 -26 225 -87
314 -158 70 -56 117 -104 117 -122 0 -11 -203 -179 -217 -179 -7 0 -13 11 -13
25 0 31 -85 101 -180 148 -62 31 -69 32 -172 30 -197 -4 -314 -49 -428 -163
-110 -110 -170 -252 -170 -407 0 -162 52 -288 169 -404 111 -111 221 -158 371
-160 51 0 69 -3 55 -9 -36 -15 35 -12 100 5 75 20 139 55 205 112 41 36 51 51
47 70 -3 15 0 23 10 23 17 0 209 -158 218 -179 13 -31 -152 -170 -270 -226
-110 -53 -205 -76 -344 -82 -91 -4 -122 -3 -117 5 4 7 -4 14 -21 18 -344 76
-578 290 -664 609 -32 118 -33 328 -1 440 89 313 340 541 663 604 l44 9 -40 2
-40 3 50 8 c74 11 227 0 314 -22z m-376 4 c-7 -2 -19 -2 -25 0 -7 3 -2 5 12 5
14 0 19 -2 13 -5z m1279 -23 c21 -16 337 -422 464 -595 51 -70 53 -71 79 -44
13 13 116 146 229 294 113 149 219 287 236 307 16 20 30 41 30 47 0 7 55 11
165 11 136 0 167 -3 171 -15 4 -9 -75 -120 -207 -292 -117 -153 -280 -365
-362 -472 l-148 -193 1 -328 c0 -277 -2 -330 -14 -337 -8 -4 -69 -7 -135 -5
l-120 3 -1 331 c0 181 -4 338 -9 347 -5 9 -165 219 -356 466 -191 248 -349
457 -353 465 -3 8 -10 18 -16 22 -6 4 64 8 155 8 151 0 169 -2 191 -20z m2836
8 c9 -9 12 -69 12 -208 l0 -196 -112 -145 c-61 -79 -132 -171 -159 -204 l-47
-61 154 -199 c85 -109 157 -208 160 -219 2 -12 3 -106 2 -211 l-3 -190 -627
-3 -627 -2 -1 820 0 820 607 3 c335 1 613 3 619 5 5 1 15 -3 22 -10z m-3510
-1960 c8 -8 12 -68 12 -204 l0 -191 -196 -257 c-188 -247 -195 -258 -180 -279
8 -12 126 -166 261 -342 163 -212 245 -327 243 -340 -3 -19 -12 -20 -160 -23
-130 -2 -158 0 -158 12 0 7 -9 20 -19 27 -29 20 -521 669 -521 686 0 8 95 139
211 291 251 328 237 307 223 329 -15 24 -29 26 -47 8 -13 -13 -60 -15 -334
-15 l-318 0 3 -656 c2 -486 0 -660 -9 -670 -9 -11 -42 -14 -135 -14 l-123 0
-1 808 c0 444 4 813 8 819 6 10 139 13 588 16 318 1 593 3 610 5 16 1 35 -3
42 -10z m1707 -8 c3 -5 6 -367 6 -802 -1 -436 -1 -801 -1 -810 0 -16 -13 -18
-136 -18 -76 0 -133 4 -130 9 3 5 -2 15 -11 22 -9 8 -108 134 -220 282 -113
147 -208 267 -211 267 -10 0 -36 -33 -227 -285 -92 -121 -184 -237 -206 -257
l-38 -38 -160 0 c-145 0 -160 2 -154 17 3 9 151 203 327 432 455 591 895 1178
889 1185 -4 3 55 6 130 6 79 0 138 -4 142 -10z m-2442 -502 c-6 -7 -48 -63
-95 -125 -47 -62 -88 -109 -92 -106 -3 4 -6 60 -6 125 l0 118 101 0 c80 0 99
-3 92 -12z"/>
<path d="M12180 8729 c-9 -5 -159 -9 -337 -9 l-323 0 0 -520 0 -520 314 0
c172 0 328 -3 345 -6 27 -6 31 -4 31 15 0 21 -85 143 -262 373 -54 70 -98 132
-98 137 0 6 81 119 180 252 99 133 180 250 180 260 0 23 -12 30 -30 18z m-416
-221 c-4 -7 -41 -57 -82 -110 -40 -53 -80 -114 -87 -135 -13 -35 -14 -27 -15
110 l0 147 96 0 c73 0 93 -3 88 -12z m-159 -499 c5 -8 44 -60 87 -116 43 -56
78 -104 78 -107 0 -3 -43 -6 -95 -6 l-95 0 1 153 c1 89 4 139 8 121 4 -17 12
-37 16 -45z"/>
<path d="M10393 6532 c-10 -10 -65 -79 -121 -154 -72 -95 -101 -141 -95 -150
33 -54 217 -288 230 -292 9 -4 20 -1 25 6 9 15 11 568 2 592 -8 21 -20 20 -41
-2z"/>
<path d="M14242 9120 c-111 -8 -140 -25 -160 -91 -10 -35 -12 -225 -10 -894 3
-779 4 -853 20 -881 29 -52 61 -59 278 -59 301 0 290 -14 299 379 l6 273 234
-305 c207 -270 239 -307 280 -326 43 -19 62 -21 276 -21 257 0 286 5 304 57
16 44 14 192 -3 231 -7 18 -106 153 -220 301 -113 148 -206 272 -206 277 0 4
22 36 48 71 230 302 239 316 253 369 9 37 13 123 14 274 0 321 -5 330 -190
346 -117 10 -1087 9 -1223 -1z m1356 -296 l2 -201 -196 -258 -196 -257 25 -27
c69 -75 508 -664 505 -678 -3 -14 -23 -16 -173 -14 -93 1 -171 6 -173 10 -1 4
-121 162 -267 352 -145 189 -264 351 -265 359 0 8 99 143 220 300 194 252 240
322 208 320 -5 0 -159 0 -343 0 l-335 0 0 -669 c0 -527 -3 -670 -12 -672 -7
-2 -68 -3 -135 -1 l-123 3 -2 820 -3 819 630 -2 630 -3 3 -201z m-738 -301 c0
-6 -79 -113 -152 -206 l-38 -49 0 131 0 131 95 0 c52 0 95 -3 95 -7z"/>
<path d="M12710 9109 c-69 -13 -88 -40 -101 -139 -13 -94 -7 -319 10 -362 5
-15 22 -35 38 -45 25 -17 64 -18 563 -18 519 0 536 1 570 20 20 12 73 71 127
142 88 117 91 124 98 186 9 80 -1 161 -23 187 -10 12 -39 24 -71 30 -66 12
-1147 12 -1211 -1z m1260 -94 c10 -12 3 -27 -43 -87 -107 -140 -153 -193 -165
-192 -7 1 -211 2 -454 2 l-443 2 3 140 3 140 532 3 c293 1 537 3 543 5 6 1 17
-5 24 -13z"/>
<path d="M12715 8431 c-100 -18 -110 -44 -110 -286 0 -206 8 -245 58 -273 29
-15 77 -17 464 -20 251 -2 471 1 525 7 84 9 96 13 120 40 34 38 41 94 37 298
-4 174 -13 202 -67 226 -30 13 -956 21 -1027 8z m1040 -231 l0 -145 -445 -3
-445 -2 0 142 0 143 430 5 c237 3 437 5 445 5 13 0 15 -23 15 -145z"/>
<path d="M12691 7760 c-54 -13 -71 -38 -83 -121 -15 -110 -5 -339 19 -386 29
-60 54 -64 398 -71 281 -5 296 -6 236 -18 -305 -63 -544 -264 -660 -556 -17
-42 -32 -82 -33 -90 -1 -7 -4 109 -8 257 -9 390 0 379 -295 378 -217 0 -250
-8 -280 -68 -18 -37 -20 -66 -25 -380 l-5 -340 -112 145 c-62 80 -190 246
-285 370 -102 132 -186 232 -205 243 -63 36 -360 46 -476 16 -33 -9 -42 -18
-60 -57 l-22 -47 0 -845 c0 -950 -3 -908 70 -945 36 -18 60 -20 230 -20 170 0
194 2 230 20 60 30 63 50 64 420 1 176 5 325 9 331 4 7 120 -136 287 -355 336
-439 301 -411 523 -418 179 -7 276 6 309 40 34 33 42 110 43 387 l1 235 34
-93 c105 -289 324 -490 623 -569 87 -24 116 -26 282 -27 144 -1 204 3 270 17
329 71 573 287 686 607 l23 65 0 -240 c2 -360 11 -394 120 -415 72 -13 1060
-13 1132 0 77 15 98 39 111 131 14 103 5 333 -15 382 -29 67 -46 70 -420 75
l-328 4 3 32 3 31 255 5 c269 6 297 11 325 54 36 55 42 370 9 463 -24 68 -53
74 -346 81 l-248 5 0 32 0 33 263 4 c333 4 318 -1 445 164 51 66 96 135 102
154 14 51 12 175 -4 214 -25 61 -24 61 -691 61 -545 0 -603 -2 -638 -17 -68
-31 -71 -50 -75 -395 l-4 -302 -23 15 c-25 16 -160 34 -267 34 -38 0 -68 2
-68 5 0 2 28 41 62 85 l62 81 4 92 c6 134 -5 166 -81 227 -34 28 -101 70 -148
95 -85 44 -239 95 -287 95 -52 0 -11 11 73 20 104 11 130 26 146 82 16 57 16
359 0 415 -23 81 3 78 -651 80 -316 1 -590 -2 -609 -7z m1214 -230 l0 -145
-517 -3 -518 -2 0 144 c0 106 3 146 13 150 6 2 239 4 517 3 l505 -2 0 -145z
m-90 -460 c82 -23 175 -62 234 -98 73 -44 161 -118 161 -136 0 -21 -161 -221
-181 -224 -13 -2 -17 1 -13 11 7 20 -84 100 -151 132 -75 37 -225 57 -325 44
-111 -14 -207 -65 -295 -153 -116 -117 -168 -243 -168 -411 0 -159 52 -284
168 -400 84 -84 168 -129 282 -152 75 -15 91 -15 184 0 185 28 316 123 399
289 64 129 76 121 -197 119 l-233 -2 10 26 c6 15 43 74 83 131 39 58 76 114
82 125 9 18 22 19 302 19 l291 0 7 -75 c9 -97 -9 -248 -41 -344 -88 -264 -276
-451 -544 -542 -81 -27 -113 -33 -222 -37 -79 -3 -152 0 -190 7 -68 13 -207
80 -301 143 -233 158 -369 443 -354 743 11 215 80 382 221 532 83 88 137 129
237 179 40 21 77 43 81 48 5 7 8 7 8 1 0 -5 4 -5 8 2 4 6 39 18 77 27 80 18
312 15 380 -4z m-2478 -25 c12 -9 73 -82 136 -163 214 -277 543 -707 631 -824
86 -115 112 -140 122 -115 2 7 3 261 2 565 l-3 552 130 0 c89 0 135 -4 143
-12 9 -9 12 -201 12 -804 0 -436 -3 -799 -6 -808 -5 -14 -28 -16 -147 -16 -77
0 -138 3 -134 6 3 3 -34 56 -82 117 -48 62 -127 166 -176 232 -77 104 -565
745 -586 768 -4 5 -15 6 -25 3 -18 -6 -19 -30 -19 -563 l0 -558 -132 -3 -133
-3 -2 668 c-2 367 -3 733 -3 813 0 85 -4 148 -10 152 -5 4 51 8 125 8 105 0
140 -3 157 -15z m4519 0 c7 -16 -185 -269 -212 -279 -9 -3 -151 -6 -317 -6
l-302 0 0 -182 0 -183 305 -5 305 -5 3 -143 c2 -113 0 -143 -11 -148 -8 -3
-146 -6 -307 -7 l-294 -2 -1 -182 0 -183 377 0 c349 0 378 -1 386 -17 5 -10 8
-71 6 -136 -2 -64 -4 -124 -4 -132 0 -13 -66 -15 -520 -15 l-520 0 -2 820 -3
820 553 0 c479 0 553 -2 558 -15z m-2246 -466 c50 -22 140 -80 140 -90 0 -4
-17 -10 -37 -14 -75 -14 -99 -33 -179 -147 -92 -131 -103 -159 -104 -261 0
-147 21 -164 213 -176 l112 -6 -55 -36 c-160 -105 -281 -88 -428 57 -86 86
-137 192 -136 285 1 138 119 307 264 377 78 38 143 41 210 11z"/>
<path d="M16065 7153 c-49 -11 -77 -28 -93 -57 -16 -28 -17 -102 -20 -870 -2
-573 1 -856 8 -892 20 -94 49 -104 291 -105 212 0 245 8 274 66 18 36 20 67
25 315 l5 275 214 -280 c118 -154 228 -295 245 -313 50 -54 107 -64 340 -64
229 0 272 9 295 57 17 35 18 186 2 228 -6 16 -103 149 -216 297 -113 148 -205
277 -205 288 0 10 63 102 139 202 96 126 144 198 153 229 9 33 13 115 13 281
0 259 -6 291 -61 327 -26 17 -68 18 -709 20 -374 0 -689 -1 -700 -4z m1399
-89 c14 -5 16 -33 16 -209 0 -195 -1 -203 -22 -231 -13 -15 -100 -129 -195
-253 -169 -221 -172 -226 -154 -246 69 -76 511 -669 511 -685 0 -19 -7 -20
-162 -20 -90 0 -168 4 -174 8 -5 4 -73 90 -150 192 -78 102 -198 259 -267 349
-70 91 -127 170 -127 177 0 7 99 142 220 301 121 158 220 296 220 307 0 15 -5
17 -31 12 -17 -3 -173 -6 -345 -6 l-314 0 -2 -667 -3 -668 -132 -3 -133 -3 0
821 0 820 588 3 c323 1 599 3 614 5 14 1 33 -1 42 -4z m-724 -510 c0 -6 -151
-206 -177 -234 -11 -12 -13 6 -13 113 l0 127 95 0 c52 0 95 -3 95 -6z"/>
<path d="M2968 5275 c-166 -45 -283 -171 -318 -342 -19 -90 -8 -304 19 -374
50 -130 154 -227 290 -270 95 -30 288 -30 383 1 138 43 253 154 294 283 21 67
30 272 15 352 -33 176 -152 305 -324 351 -66 17 -294 17 -359 -1z m424 -107
c79 -37 142 -98 181 -177 29 -60 32 -74 32 -161 0 -84 -3 -102 -28 -152 -64
-131 -204 -220 -342 -217 -27 1 -41 3 -30 5 58 13 164 49 193 66 l32 20 -2
281 -3 282 -55 27 c-30 15 -86 34 -125 42 l-70 16 80 -3 c62 -2 93 -9 137 -29z"/>
</g>
</svg>
